<svg xmlns="http://www.w3.org/2000/svg" height="1200" width="1600" version="1.1" xmlns:xlink="http://www.w3.org/1999/xlink" xmlns:svgjs="http://svgjs.com/svgjs"><g><path d="M1229.43 789.89H1332.74C1357.21 789.89 1377.04 809.72 1377.04 834.19V937.5C1377.04 961.97 1357.21 981.8 1332.74 981.8H1229.43C1204.96 981.8 1185.13 961.97 1185.13 937.5V834.19C1185.13 809.72 1204.96 789.89 1229.43 789.89Z" fill="#ffffff" opacity="1" stroke-width="4" stroke="none"></path></g><g><path d="M1239.73 224.15C1255.56 242.65 1265.84 266.8 1261.31 288.08 1256.79 309.25 1237.47 327.55 1214.55 338.65 1191.63 349.85 1165.21 353.86 1146.41 344.09 1127.7 334.23 1116.7 310.38 1111.15 285.51 1105.6 260.64 1105.4 234.63 1117.93 216.85 1130.58 199.07 1155.96 189.61 1179.3 191.16 1202.63 192.8 1223.9 205.65 1239.73 224.15Z" fill="#ffffff" opacity="1" stroke-width="4" stroke="none"></path></g><g><path d="M981.88 559.11L911.63 741.08 1091.18 914.84 1334.55 766.64 1315.75 666.81 1217.53 577.76 981.88 559.11Z" stroke="#231f20" stroke-width="4" opacity="1" fill="none"></path><path d="M988.31 566.02L1072.38 693.34 1091.18 906.65" stroke="#231f20" stroke-width="4" opacity="1" fill="none"></path><path d="M911.63 741.08L1072.38 693.34 1304.65 666.81" stroke="#231f20" stroke-width="4" opacity="1" fill="none"></path><path d="M1209.81 582.1L1075.91 686.42" stroke="#231f20" stroke-width="4" opacity="1" fill="none"></path><path d="M1083.15 699.77L1326.52 761.97" stroke="#231f20" stroke-width="4" stroke-linecap="round" stroke-linejoin="round" opacity="1" fill="none"></path><path d="M911.63 760.37C921.93 760.37 930.28 752.02 930.28 741.72 930.28 731.42 921.93 723.07 911.63 723.07 901.33 723.07 892.98 731.42 892.98 741.72 892.98 752.02 901.33 760.37 911.63 760.37Z" fill="#ff9edd" opacity="1" stroke-width="4" stroke="none"></path><path d="M1072.38 711.98C1082.68 711.98 1091.02 703.64 1091.02 693.34 1091.02 683.03 1082.68 674.69 1072.38 674.69 1062.07 674.69 1053.73 683.03 1053.73 693.34 1053.73 703.64 1062.07 711.98 1072.38 711.98Z" fill="#ff9edd" opacity="1" stroke-width="4" stroke="none"></path><path d="M1341.72 783.87C1351.24 779.93 1355.76 769.01 1351.82 759.5 1347.86 750 1336.96 745.47 1327.45 749.42 1317.93 753.36 1313.41 764.26 1317.35 773.77 1321.29 783.29 1332.21 787.81 1341.72 783.87Z" fill="#ff9edd" opacity="1" stroke-width="4" stroke="none"></path><path d="M1091.18 933.49C1101.49 933.49 1109.83 925.15 1109.83 914.84 1109.83 904.54 1101.49 896.2 1091.18 896.2 1080.88 896.2 1072.54 904.54 1072.54 914.84 1072.54 925.15 1080.88 933.49 1091.18 933.49Z" fill="#ff9edd" opacity="1" stroke-width="4" stroke="none"></path><path d="M1315.75 685.46C1326.05 685.46 1334.39 677.12 1334.39 666.81 1334.39 656.51 1326.05 648.17 1315.75 648.17 1305.44 648.17 1297.1 656.51 1297.1 666.81 1297.1 677.12 1305.44 685.46 1315.75 685.46Z" fill="#ff9edd" opacity="1" stroke-width="4" stroke="none"></path><path d="M981.88 577.76C992.18 577.76 1000.52 569.42 1000.52 559.11 1000.52 548.81 992.18 540.47 981.88 540.47 971.57 540.47 963.23 548.81 963.23 559.11 963.23 569.42 971.57 577.76 981.88 577.76Z" fill="#ff9edd" opacity="1" stroke-width="4" stroke="none"></path><path d="M1217.53 596.41C1227.83 596.41 1236.18 588.06 1236.18 577.76 1236.18 567.46 1227.83 559.11 1217.53 559.11 1207.23 559.11 1198.88 567.46 1198.88 577.76 1198.88 588.06 1207.23 596.41 1217.53 596.41Z" fill="#ff9edd" opacity="1" stroke-width="4" stroke="none"></path></g><g><path d="M393.25 226.46H727.94C753.76 226.46 774.66 249 774.66 276.95V698.6C774.66 726.44 753.76 748.98 727.94 748.98H393.25C367.43 748.98 346.52 726.44 346.52 698.6V276.95C346.52 249.11 367.43 226.46 393.25 226.46Z" fill="#ff9edd" opacity="1" stroke-width="4" stroke="none"></path></g><g><path d="M677.98 404.53C662.58 390.55 638.78 391.67 624.8 407.08L468.25 579.35 468.29 579.38 468.25 579.35 468.16 579.79 457.95 615.77 445.26 660.64 488.66 643.59 523.49 630.11 524 629.88 523.93 629.81 680.53 457.71C694.51 442.31 693.38 418.51 677.98 404.53Z" fill="#000000" opacity="0.2" stroke-width="4" stroke="none"></path><path d="M619.35 361.57C601.37 351.12 578.33 357.18 567.88 375.17L450.77 576.34 515.73 614.11 632.95 413.04C643.4 395.06 637.33 372.02 619.35 361.57Z" fill="#ffc930" opacity="1" stroke-width="4" stroke="none"></path><path d="M564.13 381.67L551.52 403.33 616.49 441.16 629.11 419.5 564.13 381.67Z" fill="#61ccff" opacity="1" stroke-width="4" stroke="none"></path><path d="M515.84 614.11L450.77 576.34V576.79L448.29 614.11 484.15 634.9 515.39 614.44 515.84 614.11Z" fill="#bdbdbd" opacity="1" stroke-width="4" stroke="none"></path><path d="M445.26 660.64L484.15 634.9 448.29 614.11 445.26 660.64Z" fill="#000000" opacity="1" stroke-width="4" stroke="none"></path><path d="M568.89 413.49L468.75 585.33" stroke="#000000" stroke-width="4" stroke-linecap="round" stroke-linejoin="round" opacity="1" fill="none"></path><path d="M599.12 431.14L499.09 602.98" stroke="#000000" stroke-width="4" stroke-linecap="round" stroke-linejoin="round" opacity="1" fill="none"></path></g><g><path d="M671.18 262.58H724.64C733.9 262.58 741.39 270.07 741.39 279.33V301.31C741.39 310.56 733.9 318.06 724.64 318.06H671.18C661.92 318.06 654.43 310.56 654.43 301.31V279.33C654.43 270.07 661.92 262.58 671.18 262.58Z" fill="#f3ebe9" opacity="1" stroke-width="4" stroke="none"></path><path d="M685.22 302.31L671.43 290.48 685.22 278.7" stroke="#ffffff" stroke-width="4" stroke-linecap="round" stroke-linejoin="round" opacity="1" fill="none"></path><path d="M710.53 278.7L724.32 290.48 710.53 302.31" stroke="#ffffff" stroke-width="4" stroke-linecap="round" stroke-linejoin="round" opacity="1" fill="none"></path><path d="M701.85 277.95L693.91 302.63" stroke="#ffffff" stroke-width="4" stroke-linecap="round" stroke-linejoin="round" opacity="1" fill="none"></path></g><g><path d="M286.57 717.39H392.98C408.73 717.39 421.45 730.11 421.45 745.86V826.02C421.45 841.77 408.73 854.49 392.98 854.49H286.57C270.82 854.49 258.1 841.77 258.1 826.02V745.86C258.1 730.11 270.82 717.39 286.57 717.39Z" fill="#61ccff" opacity="1" stroke-width="4" stroke="none"></path><path d="M263.55 731.52L339.47 796.14 415.59 731.52" stroke="#000000" stroke-width="4" stroke-linecap="round" stroke-linejoin="round" opacity="1" fill="none"></path><path d="M326.75 786.85L263.55 840.56" stroke="#000000" stroke-width="4" stroke-linecap="round" stroke-linejoin="round" opacity="1" fill="none"></path><path d="M415.59 840.56L353.81 788.06" stroke="#000000" stroke-width="4" stroke-linecap="round" stroke-linejoin="round" opacity="1" fill="none"></path></g><g><path d="M1250.84 490.8L1303.14 449.89C1315.03 440.56 1332.26 442.61 1341.59 454.61L1382.5 506.9C1391.83 518.8 1389.78 536.02 1377.78 545.35L1325.49 586.27C1313.59 595.6 1296.37 593.55 1287.04 581.55L1246.12 529.26C1236.89 517.36 1238.94 500.13 1250.84 490.8Z" fill="#61ccff" opacity="1" stroke-width="4" stroke="none"></path><path d="M1293.91 513.26L1290.93 537.77" stroke="#010202" stroke-width="4" stroke-linecap="round" stroke-linejoin="round" opacity="1" fill="none"></path><path d="M1280.17 524.03L1304.67 527" stroke="#010202" stroke-width="4" stroke-linecap="round" stroke-linejoin="round" opacity="1" fill="none"></path><path d="M1328.87 485.87L1325.9 510.38" stroke="#010202" stroke-width="4" stroke-linecap="round" stroke-linejoin="round" opacity="1" fill="none"></path><path d="M1315.13 496.64L1339.74 499.61" stroke="#010202" stroke-width="4" stroke-linecap="round" stroke-linejoin="round" opacity="1" fill="none"></path><path d="M1321.8 539.4L1333.9 529.86" stroke="#010202" stroke-width="4" stroke-linecap="round" stroke-linejoin="round" opacity="1" fill="none"></path></g><g><path d="M169.41 590.78C197.65 610.55 260.35 585.69 298.95 561.69 341.88 534.95 343.3 506.99 325.97 507.27 301.87 507.65 243.41 582.87 278.34 598.59 307.14 611.68 359.02 586.73 372.76 601.79 386.51 616.86 392.91 650.56 430.66 667.32" stroke="#231f20" stroke-width="4" stroke-linecap="round" stroke-linejoin="round" opacity="1" fill="none"></path></g><g><path d="M497.3 1005.44V943.54" stroke="#ffffff" stroke-width="4" stroke-linecap="round" stroke-linejoin="round" opacity="1" fill="none"></path><path d="M466.35 974.49H528.25" stroke="#ffffff" stroke-width="4" stroke-linecap="round" stroke-linejoin="round" opacity="1" fill="none"></path></g><g><path d="M225.49 452.58V486.08" stroke="#ffffff" stroke-width="4" stroke-linecap="round" stroke-linejoin="round" opacity="1" fill="none"></path><path d="M242.23 469.33H208.74" stroke="#ffffff" stroke-width="4" stroke-linecap="round" stroke-linejoin="round" opacity="1" fill="none"></path></g><g><path d="M955.35 175.76C968.26 175.76 978.72 186.23 978.72 199.13 978.72 204.96 976.52 210.36 973 214.46 968.63 219.39 962.43 222.44 955.35 222.44 947.1 222.44 939.85 218.12 935.72 211.83 933.37 208.19 931.98 203.79 931.98 199.13 931.98 186.23 942.45 175.76 955.35 175.76Z" fill="#ffffff" opacity="1" stroke-width="4" stroke="none"></path></g><g><path d="M1215.18 374.9L1167.55 339.67 1208.88 305.68C1209.6 305.06 1209.81 304.02 1209.4 303.2 1208.98 302.37 1207.95 301.85 1207.02 302.16L1157.12 314.46 1149.99 263.42C1149.89 262.49 1149.06 261.67 1148.13 261.67 1147.1 261.56 1146.27 262.18 1145.96 263.21L1131.19 316.11 1065.38 299.06C1064.34 298.86 1063.41 299.27 1063 300.2 1062.59 301.13 1062.9 302.27 1063.72 302.78L1116.83 336.98 1062.38 381.61C1061.55 382.23 1061.35 383.37 1061.86 384.3 1062.38 385.13 1063.41 385.54 1064.45 385.13L1128.29 359.4 1137.18 406.82C1137.39 407.75 1138.21 408.47 1139.14 408.47 1139.14 408.47 1139.14 408.47 1139.25 408.47 1140.18 408.47 1141 407.85 1141.21 406.92L1153.19 360.64 1213.22 378.62C1214.15 378.93 1215.18 378.41 1215.7 377.58 1216.21 376.55 1216.01 375.52 1215.18 374.9Z" fill="#ff9edd" opacity="1" stroke-width="4" stroke="none"></path><path d="M1101.02 259.39L1090.38 241.31" stroke="#231f20" stroke-width="4" stroke-linecap="round" stroke-linejoin="round" opacity="1" fill="none"></path><path d="M1182.02 278.61L1188.32 269" stroke="#231f20" stroke-width="4" stroke-linecap="round" stroke-linejoin="round" opacity="1" fill="none"></path><path d="M1202.16 411.68L1212.81 422.32" stroke="#231f20" stroke-width="4" stroke-linecap="round" stroke-linejoin="round" opacity="1" fill="none"></path><path d="M1059.59 338.22H1037.17" stroke="#231f20" stroke-width="4" stroke-linecap="round" stroke-linejoin="round" opacity="1" fill="none"></path></g><g><path d="M339.15 239.75L260.64 276.69C259.87 277.07 259.35 277.85 259.35 278.75L256.78 380.3C256.78 380.81 256.52 381.33 256 381.58L235.54 393.17C226.27 398.57 223.06 410.54 228.46 419.81 230.26 423.03 233.09 425.6 236.31 427.27 245.84 432.16 257.68 428.56 262.57 418.91 263.98 416.08 264.76 413.12 264.76 409.9V382.1L266.43 321.48 330.27 292.65 326.28 348.63C326.28 349.28 325.89 349.79 325.38 350.05L304.53 361.76C295.26 367.17 292.04 379.14 297.45 388.4 299.25 391.62 302.08 394.2 305.3 395.87 314.82 400.76 326.66 397.16 331.55 387.5 332.97 384.67 333.74 381.71 333.74 378.49V345.29L340.56 240.65C340.56 239.88 339.79 239.36 339.15 239.75ZM266.56 314.14L267.33 287.76C267.33 287.5 267.46 287.24 267.72 287.11L331.55 255.71C332.2 255.45 332.84 255.84 332.84 256.61L330.91 283.51 266.56 314.14Z" fill="#61ccff" opacity="1" stroke-width="4" stroke="none"></path></g><g><path d="M586.28 731.4L715.18 873.28 645.07 982.67 586.28 731.4Z" fill="#ffc930" opacity="1" stroke-width="4" stroke="none"></path></g><g><path d="M1069 922.16C1034.9 863.9 1000.8 841.88 983.03 797.93 961.92 745.35 977.86 638.99 915.84 588.44H915.74L854.54 605.08C854.54 605.08 854.44 605.08 854.44 605.19 854.13 607.83 843.37 696.13 884.38 794.38 892.5 813.76 902.55 833.56 915.23 853.15 948.73 905.21 984.56 957.89 1001.61 987.73 1006.79 996.87 1010.24 1003.87 1011.35 1008.03 1011.35 1008.03 1011.35 1008.03 1011.35 1008.13L1041.19 1027.21H1041.29L1095.9 971.39V971.29C1094.68 968.55 1091.84 963.07 1088.39 956.47 1082.5 945.1 1074.48 930.59 1069 922.16Z" fill="#f49e73" opacity="1" stroke-width="4" stroke="none"></path><path d="M983.14 797.93C962.02 745.35 977.96 638.99 915.94 588.44H915.84L854.64 605.08C854.64 605.08 854.54 605.08 854.54 605.19 854.23 607.83 843.48 696.13 884.38 794.28 884.38 794.28 884.38 794.38 884.48 794.38L992.98 818.43C993.08 818.43 993.18 818.33 993.08 818.33 989.43 811.94 986.08 805.24 983.14 797.93Z" fill="#171717" opacity="0.2" stroke-width="4" stroke="none"></path><path d="M902.65 374.48C903.66 353.67 899.3 340.89 888.84 325.26 878.39 309.62 861.54 300.08 838.1 312.47 821.45 321.2 815.66 343.12 814.14 362.1 814.14 362.1 814.14 362.2 814.04 362.2 813.33 362.4 806.02 365.04 805.82 368.39 805.51 371.84 811 376.31 811.5 376.82V376.92C806.53 389.81 806.73 407.37 820.64 413.46 827.44 416.5 838.4 416.91 845.91 414.68 846.01 414.68 846.01 414.68 846.01 414.78L845.81 419.55C845.81 419.65 845.81 419.65 845.91 419.65L876.46 423.4H887.83C887.83 423.4 887.93 423.4 887.93 423.3 888.54 422.08 902.95 421.07 903.05 419.65 903.26 416.4 903.46 412.54 903.76 408.38 904.48 396.91 902.24 383.21 902.65 374.48Z" fill="#f49e73" opacity="1" stroke-width="4" stroke="none"></path><path d="M905.9 373.87C906.91 353.07 908.84 334.69 898.39 319.17 887.93 303.53 858.5 294.3 835.15 306.68H835.05C830.69 302.72 825.31 300.19 819.42 299.37 810.69 298.36 799.63 304.04 800.74 316.02 802.27 334.8 833.83 359.87 852.1 364.94H852.2C853.22 364.13 874.03 347.69 886.21 359.87 896.96 373.37 875.24 392.35 874.03 393.36V393.46C877.17 400.57 894.83 408.48 903.87 408.28 903.97 408.28 903.97 408.28 903.97 408.18 904.37 402.39 905.69 379.05 905.9 373.87Z" fill="#a66241" opacity="1" stroke-width="4" stroke="none"></path><path d="M900.11 241.73C921.32 214.63 950.66 202.25 965.68 214.02 980.7 225.8 975.83 257.26 954.62 284.36 933.4 311.46 904.68 322.32 889.66 310.55 874.63 298.77 879 268.73 900.11 241.73Z" fill="#a66241" opacity="1" stroke-width="4" stroke="none"></path><path d="M1052.05 423.3C1052.36 422.59 1055.5 417.52 1052.05 412.85 1048.81 408.59 1037.44 417.92 1033.99 420.87 1033.88 420.97 1033.78 420.87 1033.88 420.76 1037.84 415.89 1054.39 394.88 1047.89 392.24 1040.89 389.2 1013.28 422.19 1010.74 425.23 1010.64 425.33 1010.54 425.23 1010.54 425.13 1010.54 423 1010.64 409.9 1007.8 407.98 1004.65 405.84 995.92 420.26 986.59 438.93 981.51 449.08 974.71 465.93 969.74 478.62V478.72L988.31 510.79C988.31 510.79 988.41 510.89 988.41 510.79L1018.25 501.15C1018.25 501.15 1018.36 501.15 1018.36 501.05 1020.08 488.67 1021.4 479.02 1022.82 477.3 1028 471.01 1026.98 473.14 1041.5 459.64 1055.3 446.85 1051.34 439.64 1050.84 438.93V438.83C1057.84 431.93 1052.56 424.01 1052.05 423.3Z" fill="#f49e73" opacity="1" stroke-width="4" stroke="none"></path><path d="M861.95 825.23C870.27 769.11 940.81 686.89 912.9 612.09L912.8 611.99 831.5 612.49H831.4C830.28 614.52 792.32 682.93 775.78 786.77 774.76 803.41 774.56 820.77 775.67 838.63 780.14 910.59 785.11 957.69 787.96 998.59 788.16 1001.94 788.36 1005.29 788.56 1008.54L807.54 1055.64C807.54 1055.75 807.65 1055.75 807.65 1055.64L878.49 1013.61V1013.51C879.51 875.78 855.05 872.02 861.95 825.23Z" fill="#f49e73" opacity="1" stroke-width="4" stroke="none"></path><path d="M780.14 784.14L865.5 809.11C865.6 809.11 865.6 809.11 865.6 809 867.63 801.9 870.37 794.49 873.42 786.67 875.35 781.8 877.48 776.63 879.71 771.55 879.71 771.45 879.71 771.45 879.61 771.45L780.14 783.93C780.04 784.04 780.04 784.14 780.14 784.14Z" fill="#171717" opacity="0.2" stroke-width="4" stroke="none"></path><path d="M647.99 581.13C624.14 592.6 589.83 616.45 585.67 624.78 581.92 632.39 588.41 633.91 589.63 634.11 589.73 634.11 589.73 634.21 589.63 634.32 581.92 642.23 593.99 645.38 594.91 645.58 594.91 645.58 595.01 645.58 595.01 645.68 597.95 660.91 626.27 641.83 630.74 638.78 630.84 638.68 630.94 638.88 630.84 638.88 627.89 642.54 612.26 662.23 619.88 663.14 628.1 664.16 646.37 640.91 646.87 640.3 647.08 640.2 649.72 639.09 661.49 636.14 669.3 634.01 676.31 630.15 682.3 624.67 682.3 624.67 682.3 624.67 682.4 624.67 683.21 624.67 695.29 624.78 710.21 624.17 710.31 624.17 710.31 624.17 710.31 624.07L710.92 587.63C710.92 587.63 710.92 587.63 710.92 587.53L696.2 564.69C696.2 564.69 696.1 564.59 696.1 564.69 677.73 570.17 658.14 576.26 647.99 581.13Z" fill="#f49e73" opacity="1" stroke-width="4" stroke="none"></path><path d="M915.84 588.44L866.21 601.94H827.74 827.64C826.42 604.07 782.58 680.7 775.88 786.77 775.88 786.87 775.88 786.87 775.98 786.87L979.28 786.77C979.38 786.77 979.38 786.66 979.38 786.66 963.95 731.35 973.8 635.43 915.84 588.44 915.94 588.44 915.94 588.44 915.84 588.44Z" fill="#ffc930" opacity="1" stroke-width="4" stroke="none"></path><path d="M783.29 573.12C746.14 588.25 720.16 576.47 714.17 559.42L714.07 559.32C708.28 561.05 702.6 562.67 696.1 564.5 696 564.5 696 564.6 696 564.6L710.21 623.97 710.31 624.08C728.17 623.16 750.3 621.03 766.03 615.85L766.13 615.75C763.29 600.83 781.26 576.17 783.39 573.33 783.49 573.22 783.39 573.12 783.29 573.12Z" fill="#61ccff" opacity="1" stroke-width="4" stroke="none"></path><path d="M966.29 565.5C985.17 552.2 999.98 521.15 1000.29 492.22 1000.29 492.22 1000.29 492.12 1000.19 492.12L969.84 478.62C969.74 478.62 969.74 478.62 969.74 478.72 968.93 480.95 968.11 482.98 967.3 484.91 964.87 491.2 963.24 495.67 962.84 496.79 962.84 496.89 962.63 496.89 962.63 496.79 961.92 494.86 957.36 482.37 951.16 469.28L951.06 469.18C931.68 476.18 918.58 485.72 916.55 487.25 916.45 487.35 916.35 487.25 916.45 487.14 922.24 473.54 924.17 458.62 925.89 436.6 925.89 436.6 925.89 436.5 925.79 436.5 918.48 432.34 910.77 429.19 902.65 427.46L902.55 427.36 903.16 419.75C903.16 419.65 903.16 419.65 903.05 419.65H846.01C845.91 419.65 845.91 419.65 845.91 419.75L845.61 426.25C845.61 426.35 845.61 426.35 845.51 426.35 825.41 426.75 806.53 433.25 791.41 453.35 786.53 459.84 780.45 470.9 774.15 483.59V483.69C796.28 498.92 836.37 497.09 882.75 462.48 882.86 462.38 882.96 462.48 882.86 462.58 879 468.98 835.66 544.19 909.75 549.26 909.85 549.26 909.85 549.36 909.75 549.46 905.9 551.7 864.99 575.96 859.51 601.74 859.51 601.84 859.51 601.84 859.61 601.84H929.44C929.55 601.84 929.55 601.84 929.55 601.74L933.5 568.95C933.5 568.85 933.61 568.85 933.71 568.95 935.53 572 953.8 601.13 984.35 588.24 994.61 583.87 1001.81 571.69 1006.89 556.77 1006.89 556.67 1006.89 556.67 1006.79 556.67 989.83 555.76 970.85 563.57 966.29 565.6 966.29 565.7 966.19 565.6 966.29 565.5Z" fill="#61ccff" opacity="1" stroke-width="4" stroke="none"></path><path d="M967.1 485.33C965.17 490.3 962.94 496.49 962.74 497 962.74 497 962.74 497 962.74 497.1L969.23 512.22C969.23 512.33 969.43 512.33 969.43 512.22L967.3 485.43C967.3 485.23 967.2 485.23 967.1 485.33Z" fill="#125d80" opacity="0.2" stroke-width="4" stroke="none"></path><path d="M933.71 568.76C934.01 569.37 939.7 578.91 949.54 585.4 949.64 585.51 949.74 585.4 949.74 585.3 948.42 582.87 940.81 567.74 937.56 537.8 937.56 537.7 937.36 537.7 937.36 537.8L933.71 568.76Z" fill="#125d80" opacity="0.2" stroke-width="4" stroke="none"></path><path d="M911.99 548.86C837.79 543.68 881.33 466.44 885.19 459.94 885.29 459.84 885.09 459.74 885.09 459.84 838.7 494.55 796.48 498.92 774.36 483.8H774.25C759.94 512.92 745.33 549.57 744.82 551.09 744.82 551.09 744.82 551.09 744.72 551.19 743.8 551.39 731.02 554.64 714.37 559.41 714.27 559.41 714.27 559.51 714.27 559.51 720.16 576.56 741.57 592.4 778.62 577.27 778.72 577.27 778.82 577.38 778.72 577.38 776.99 580.01 763.39 601.03 766.24 615.74 766.24 615.84 766.34 615.84 766.34 615.84 769.18 614.93 772.12 613.71 774.66 612.29 799.32 599.4 815.56 563.06 817.09 559.61 817.09 559.51 817.29 559.51 817.29 559.61L822.57 580.93 827.74 601.84 827.84 601.94H863.17C863.17 601.94 863.27 601.94 863.27 601.84 868.85 576.06 908.43 551.19 912.09 548.96 912.09 548.96 912.09 548.86 911.99 548.86Z" fill="#b0e5ff" opacity="1" stroke-width="4" stroke="none"></path><path d="M817.09 559.32L822.26 580.43C822.26 580.53 822.47 580.53 822.47 580.43L829.67 533.23C829.67 533.13 829.57 533.03 829.47 533.13L817.09 559.32Z" fill="#1e4d64" opacity="0.2" stroke-width="4" stroke="none"></path><path d="M951.06 469.19C951.16 469.19 951.16 469.09 951.16 469.09 948.12 462.69 944.67 456.4 940.91 450.31 937.06 444.42 931.68 439.96 925.99 436.61 925.89 436.61 925.89 436.61 925.89 436.71 924.06 458.74 915.34 483.4 909.55 497.2 909.55 497.3 909.65 497.41 909.75 497.3 912.39 494.46 931.47 476.19 951.06 469.19Z" fill="#b0e5ff" opacity="1" stroke-width="4" stroke="none"></path><path d="M1000.29 492.32C999.88 521.35 981.31 554.44 962.43 567.84 962.33 567.94 962.43 568.04 962.53 568.04 967.61 565.7 989.83 556.06 1006.89 557.08 1006.89 557.08 1006.99 557.08 1006.99 556.97 1013.08 538.91 1016.22 517.49 1018.46 501.25 1018.46 501.25 1018.46 501.15 1018.36 501.15L1000.49 492.32C1000.39 492.12 1000.29 492.22 1000.29 492.32Z" fill="#b0e5ff" opacity="1" stroke-width="4" stroke="none"></path><path d="M589.63 634.11L620.08 610.26" stroke="#171717" stroke-width="4" stroke-linecap="round" stroke-linejoin="round" opacity="1" fill="none"></path><path d="M595.01 645.69L628.4 623.77" stroke="#171717" stroke-width="4" stroke-linecap="round" stroke-linejoin="round" opacity="1" fill="none"></path><path d="M1004.86 434.37L1010.54 425.03" stroke="#171717" stroke-width="4" stroke-linecap="round" stroke-linejoin="round" opacity="1" fill="none"></path><path d="M1052.05 423.31C1042.72 431.64 1034.8 437.22 1034.8 437.22" stroke="#171717" stroke-width="4" stroke-linecap="round" stroke-linejoin="round" opacity="1" fill="none"></path><path d="M1050.84 438.93C1045.66 444.11 1039.06 449.49 1039.06 449.49" stroke="#171717" stroke-width="4" stroke-linecap="round" stroke-linejoin="round" opacity="1" fill="none"></path><path d="M893.62 682.12C885.7 688.62 873.72 688.62 864.59 682.12 858.29 677.66 854.34 670.75 853.52 663.24L851.59 640.51C851.59 640.41 851.59 640.41 851.7 640.41H899.4C899.5 640.41 899.5 640.41 899.5 640.51L901.43 663.24C901.94 670.35 899.1 677.55 893.62 682.12Z" fill="#fce295" opacity="1" stroke-width="4" stroke="none"></path><path d="M944.06 682.13C949.74 686.39 956.95 688.02 963.85 686.5 963.95 686.5 963.95 686.39 963.95 686.39 961.11 670.76 957.46 654.93 951.87 640.42L951.77 640.31H931.17C931.07 640.31 931.07 640.42 931.07 640.42L933 663.15C933.81 670.87 937.77 677.77 944.06 682.13Z" fill="#fce295" opacity="1" stroke-width="4" stroke="none"></path><path d="M846.42 414.69C850.48 413.26 854.23 411.34 856.77 409.2" stroke="#171717" stroke-width="4" stroke-linecap="round" stroke-linejoin="round" opacity="1" fill="none"></path><path d="M864.89 377.73L872.1 370.42" stroke="#171717" stroke-width="4" stroke-linecap="round" stroke-linejoin="round" opacity="1" fill="none"></path><path d="M827.54 368C829.28 368 830.69 366.59 830.69 364.85 830.69 363.1 829.28 361.7 827.54 361.7 825.8 361.7 824.39 363.1 824.39 364.85 824.39 366.59 825.8 368 827.54 368Z" fill="#17151c" opacity="1" stroke-width="4" stroke="none"></path><path d="M821.55 385.45C824.39 385.56 826.93 384.44 828.86 382.31" stroke="#171717" stroke-width="4" stroke-linecap="round" stroke-linejoin="round" opacity="1" fill="none"></path><path d="M962.74 497L969.33 512.12" stroke="#0e232d" stroke-width="4" stroke-linecap="round" stroke-linejoin="round" opacity="1" fill="none"></path><path d="M817.19 559.32L829.57 533.23" stroke="#0f232c" stroke-width="4" stroke-linecap="round" stroke-linejoin="round" opacity="1" fill="none"></path><path d="M933.71 568.75L937.36 537.89" stroke="#0e232d" stroke-width="4" stroke-linecap="round" stroke-linejoin="round" opacity="1" fill="none"></path><path d="M898.59 319.48C894.73 313.59 888.24 308.62 880.52 305.37" stroke="#171717" stroke-width="4" stroke-linecap="round" stroke-linejoin="round" opacity="1" fill="none"></path><path d="M750.5 1059.5C760.15 1043.57 787.45 1039.4 787.65 1007.12 787.65 1005.39 787.96 999.91 788.06 998.79 788.06 998.69 788.06 998.69 788.16 998.69L808.56 998.9C816.17 998.9 821.86 1005.7 820.64 1013.11L817.29 1033.71C817.29 1033.81 817.39 1033.91 817.49 1033.81 819.93 1031.58 841.85 1015.34 878.29 1013.72 878.49 1013.72 878.59 1013.82 878.59 1014.02 878.49 1040.42 878.59 1048.94 877.48 1060.01 877.48 1060.01 877.48 1060.11 877.38 1060.11 877.07 1060.11 875.55 1060.41 875.55 1060.41L750.6 1059.81 750.5 1059.5Z" fill="#61ccff" opacity="1" stroke-width="4" stroke="none"></path><path d="M750.6 1059.5L877.68 1058.49C877.78 1058.49 877.78 1058.59 877.78 1058.59 877.27 1067.92 877.07 1069.24 876.36 1077.36 876.36 1077.47 876.36 1077.47 876.26 1077.47H746.14C746.04 1077.47 746.04 1077.47 746.04 1077.36 746.04 1072.49 746.75 1068.53 747.97 1064.98 748.57 1062.95 749.49 1061.23 750.6 1059.5 750.5 1059.5 750.5 1059.5 750.6 1059.5Z" fill="#61ccff" opacity="1" stroke-width="4" stroke="none"></path><path d="M784.71 1024.28L799.02 1030.27" stroke="#d6f0fc" stroke-width="4" stroke-linecap="round" stroke-linejoin="round" opacity="1" fill="none"></path><path d="M778.01 1035.34L790.19 1044.48" stroke="#d6f0fc" stroke-width="4" stroke-linecap="round" stroke-linejoin="round" opacity="1" fill="none"></path><path d="M817.29 1034.01L812.32 1058.49" stroke="#d6f0fc" stroke-width="4" stroke-linecap="round" stroke-linejoin="round" opacity="1" fill="none"></path><path d="M996.64 1057.98C998.26 1039.4 1019.57 1024.27 1005.47 995.24 1004.65 993.62 1004.15 991.89 1003.13 990.17 1002.73 989.46 1002.22 988.44 1001.81 987.73V987.63L1020.69 978.5C1027.49 975.15 1035.61 978.7 1037.84 985.9L1044.03 1006.1C1044.44 1004.88 1055.3 974.84 1088.49 956.57 1088.59 956.57 1088.59 956.57 1088.59 956.57 1092.45 962.66 1107.27 989.86 1112.14 1001.54L1111.84 1001.13 996.94 1057.98H996.64Z" fill="#61ccff" stroke-linejoin="round" opacity="1" stroke-width="4" stroke="none"></path><path d="M996.74 1057.98L1111.73 1000.43C1111.84 1000.43 1111.84 1000.43 1111.84 1000.43 1115.39 1008.14 1117.01 1012.1 1119.55 1017.58V1017.68L1000.7 1076.04C1000.59 1076.04 1000.59 1076.04 1000.59 1076.04 998.46 1071.68 997.35 1067.82 996.84 1064.07 996.53 1061.94 996.53 1059.91 996.74 1057.98 996.64 1057.98 996.64 1057.98 996.74 1057.98Z" fill="#61ccff" opacity="1" stroke-width="4" stroke="none"></path><path d="M1009.32 1024.79L1022.62 1027.33" stroke="#d6f0fc" stroke-width="4" stroke-linecap="round" stroke-linejoin="round" opacity="1" fill="none"></path><path d="M1044.03 1006.31L1050.33 1030.46" stroke="#d6f0fc" stroke-width="4" stroke-linecap="round" stroke-linejoin="round" opacity="1" fill="none"></path><path d="M1010.24 1013.52L1023.23 1011.8" stroke="#d6f0fc" stroke-width="4" stroke-linecap="round" stroke-linejoin="round" opacity="1" fill="none"></path><path d="M929.75 601.95H827.64" stroke="#101f26" stroke-width="4" stroke-linecap="round" stroke-linejoin="round" opacity="1" fill="none"></path></g></svg>