<svg xmlns="http://www.w3.org/2000/svg" height="1200" width="1600" version="1.1" xmlns:xlink="http://www.w3.org/1999/xlink" xmlns:svgjs="http://svgjs.com/svgjs"><g><path d="M646.63 259.32L1081.34 261.15C1096.02 261.15 1100.05 262.69 1100.05 277.38L1107.92 298.75V619.72C1107.92 634.4 1096.02 646.31 1081.34 646.31H646.63C631.95 646.31 620.05 634.4 620.05 619.72V298.75L627.21 277.38C627.21 262.69 631.95 259.32 646.63 259.32Z" fill="#ff9edd" opacity="1" stroke-width="4" stroke="none"></path><path d="M646.63 250.79H1081.34C1096.02 250.79 1107.92 262.69 1107.92 277.38V298.75H620.05V277.38C620.05 262.69 631.95 250.79 646.63 250.79Z" fill="#ec5dba" opacity="1" stroke-width="4" stroke="none"></path><path d="M657.52 283.65C662.1 283.65 665.81 279.94 665.81 275.36 665.81 270.79 662.1 267.07 657.52 267.07 652.95 267.07 649.23 270.79 649.23 275.36 649.23 279.94 652.95 283.65 657.52 283.65Z" fill="#ffffff" opacity="1" stroke-width="4" stroke="none"></path><path d="M684.46 283.65C689.04 283.65 692.75 279.94 692.75 275.36 692.75 270.79 689.04 267.07 684.46 267.07 679.89 267.07 676.17 270.79 676.17 275.36 676.17 279.94 679.89 283.65 684.46 283.65Z" fill="#ffa0de" opacity="1" stroke-width="4" stroke="none"></path><path d="M711.4 283.65C715.98 283.65 719.69 279.94 719.69 275.36 719.69 270.79 715.98 267.07 711.4 267.07 706.83 267.07 703.11 270.79 703.11 275.36 703.11 279.94 706.83 283.65 711.4 283.65Z" fill="#ffa0de" opacity="1" stroke-width="4" stroke="none"></path><path d="M802.76 275.19H925.26" stroke="#ffa0de" stroke-width="4" stroke-linecap="round" stroke-linejoin="round" opacity="1" fill="none"></path></g><g><path d="M423.18 211.82H651.74C676.72 211.82 696.91 232.01 696.91 257V472.4C696.91 497.38 676.72 517.57 651.74 517.57H423.18C398.19 517.57 378 497.38 378 472.4V257C377.89 232.01 398.19 211.82 423.18 211.82Z" fill="#61ccff" opacity="1" stroke-width="4" stroke="none"></path><path d="M383.24 283.88C420.51 283.88 450.73 253.66 450.73 216.4 450.73 179.13 420.51 148.91 383.24 148.91 345.97 148.91 315.76 179.13 315.76 216.4 315.76 253.66 345.97 283.88 383.24 283.88Z" fill="#ffffff" opacity="1" stroke-width="4" stroke="none"></path><path d="M360.15 193.31L406.33 239.49" stroke="#010101" stroke-width="4" stroke-linecap="round" stroke-linejoin="round" opacity="1" fill="none"></path><path d="M360.15 239.49L406.33 193.31" stroke="#010101" stroke-width="4" stroke-linecap="round" stroke-linejoin="round" opacity="1" fill="none"></path></g><g><path d="M575.63 418.04L593.14 400.54 624.17 431.58C629.01 436.41 629.01 444.24 624.17 449.08 619.34 453.92 611.51 453.92 606.67 449.08L575.63 418.04Z" fill="#efdcd7" opacity="1" stroke-width="4" stroke="none"></path><path d="M625 440.31C620.17 445.15 612.34 445.15 607.5 440.31L580.43 413.24 575.63 418.04 606.67 449.08C611.51 453.92 619.34 453.92 624.17 449.08 627.46 445.8 628.51 441.18 627.35 437.03 626.77 438.18 625.98 439.3 625 440.31Z" fill="#454545" opacity="0.2" stroke-width="4" stroke="none"></path><path d="M574.67 391.64L566.71 399.6 580.41 413.31 588.38 405.35 574.67 391.64Z" fill="#efdcd7" opacity="1" stroke-width="4" stroke="none"></path><path d="M576.8 393.77L574.67 391.64 566.62 399.5 580.44 413.34 582.28 411.46C577.59 405.86 575.61 399.18 576.8 393.77Z" fill="#454545" opacity="0.2" stroke-width="4" stroke="none"></path><path d="M593.14 400.54C598.08 405.27 598.3 413.1 593.57 418.04 588.84 422.99 581.01 423.2 576.06 418.48 575.92 418.33 575.78 418.19 575.63 418.04L593.14 400.54Z" fill="#ffffff" opacity="1" stroke-width="4" stroke="none"></path><path d="M570.72 320.81C569.32 319.48 567.84 318.18 566.32 316.99L562.15 334.84 561.53 372.38 538.11 381.67 514.94 390.78 503.2 401.95C522.54 415.77 548.74 415.01 567.26 400.07 568.95 398.7 570.58 397.22 572.09 395.63 573.18 394.51 574.22 393.36 575.16 392.16 592.38 370.83 590.46 339.87 570.72 320.81Z" fill="#efdcd7" opacity="1" stroke-width="4" stroke="none"></path><path d="M469.43 332C471.92 312.51 507 298.57 508.15 298.78L500.31 282.27C471.07 282.66 447.72 306.66 448.08 335.86 448.44 362.86 469.05 385.23 495.9 387.83 498.47 388.09 501.07 388.16 503.63 388.01L505.95 371.99C503.21 372.42 466.84 352.39 469.43 332Z" fill="#efdcd7" opacity="1" stroke-width="4" stroke="none"></path><path d="M464.07 331.64C462.09 352.07 477.03 370.22 497.42 372.21 500.27 372.49 503.12 372.42 505.94 372.06L506.95 364.77 491.9 358.85 502.73 348.57 482.88 334.42 521.78 333.44 494.93 313.38 512.54 308.03 508.14 298.76C506.99 298.54 505.83 298.36 504.64 298.25 484.21 296.27 466.06 311.21 464.07 331.64Z" fill="#ffffff" opacity="1" stroke-width="4" stroke="none"></path><path d="M542.79 337.96L551.34 370.4 520.27 346.98 527.02 370.4 512.15 371.74 520.27 385.7 514.93 390.79C532.54 401.3 555.35 395.56 565.85 377.91 574.01 364.23 572.53 346.83 562.17 334.74L559.86 344.74 542.79 337.96Z" fill="#ffffff" opacity="1" stroke-width="4" stroke="none"></path><path d="M593.17 435.33L610.39 418.15" stroke="#454545" stroke-width="4" stroke-linecap="round" stroke-linejoin="round" opacity="1" fill="none"></path><path d="M598.59 440.74L615.8 423.56" stroke="#454545" stroke-width="4" stroke-linecap="round" stroke-linejoin="round" opacity="1" fill="none"></path><path d="M604 446.16L621.21 428.98" stroke="#454545" stroke-width="4" stroke-linecap="round" stroke-linejoin="round" opacity="1" fill="none"></path><path d="M567.26 400.14C568.95 398.77 570.58 397.29 572.09 395.7 573.18 394.58 574.22 393.43 575.16 392.24" stroke="#454545" stroke-width="4" stroke-linecap="round" stroke-linejoin="round" opacity="1" fill="none"></path></g><g><path d="M1155.51 404.63H1370.88C1384.98 404.63 1396.42 416.08 1396.42 430.18V640.37C1396.42 654.47 1384.98 665.92 1370.88 665.92H1155.51C1141.41 665.92 1129.96 654.47 1129.96 640.37V430.18C1129.96 416.08 1141.41 404.63 1155.51 404.63Z" fill="#070205" opacity="1" stroke-width="4" stroke="none"></path><path d="M1168.57 391.69H1383.94C1398.04 391.69 1409.49 403.14 1409.49 417.24V627.43C1409.49 641.53 1398.04 652.98 1383.94 652.98H1168.57C1154.47 652.98 1143.03 641.53 1143.03 627.43V417.24C1143.03 403.14 1154.47 391.69 1168.57 391.69Z" fill="#efdcd7" opacity="1" stroke-width="4" stroke="none"></path><path d="M1222.32 500.99C1228.01 500.99 1232.67 505.65 1232.67 511.34V533.33C1232.67 539.02 1228.01 543.68 1222.32 543.68 1216.63 543.68 1211.97 539.02 1211.97 533.33V511.34C1212.04 505.65 1216.63 500.99 1222.32 500.99Z" stroke="#ff9edd" stroke-width="4" stroke-linecap="round" stroke-linejoin="round" opacity="1" fill="none"></path><path d="M1258.28 500.99C1263.97 500.99 1268.63 505.65 1268.63 511.34V533.33C1268.63 539.02 1263.97 543.68 1258.28 543.68 1252.59 543.68 1247.93 539.02 1247.93 533.33V511.34C1247.99 505.65 1252.59 500.99 1258.28 500.99Z" stroke="#ff9edd" stroke-width="4" stroke-linecap="round" stroke-linejoin="round" opacity="1" fill="none"></path><path d="M1176.01 500.99H1186.36V543.68" stroke="#ff9edd" stroke-width="4" stroke-linecap="round" stroke-linejoin="round" opacity="1" fill="none"></path><path d="M1176.01 543.68H1196.71" stroke="#ff9edd" stroke-width="4" stroke-linecap="round" stroke-linejoin="round" opacity="1" fill="none"></path><path d="M1283.89 500.99H1294.24V543.68" stroke="#ff9edd" stroke-width="4" stroke-linecap="round" stroke-linejoin="round" opacity="1" fill="none"></path><path d="M1283.89 543.68H1304.59" stroke="#ff9edd" stroke-width="4" stroke-linecap="round" stroke-linejoin="round" opacity="1" fill="none"></path><path d="M1330.2 500.99C1335.89 500.99 1340.54 505.65 1340.54 511.34V533.33C1340.54 539.02 1335.89 543.68 1330.2 543.68 1324.51 543.68 1319.85 539.02 1319.85 533.33V511.34C1319.85 505.65 1324.51 500.99 1330.2 500.99Z" stroke="#ff9edd" stroke-width="4" stroke-linecap="round" stroke-linejoin="round" opacity="1" fill="none"></path><path d="M1355.81 500.99H1366.16V543.68" stroke="#ff9edd" stroke-width="4" stroke-linecap="round" stroke-linejoin="round" opacity="1" fill="none"></path><path d="M1355.81 543.68H1376.5" stroke="#ff9edd" stroke-width="4" stroke-linecap="round" stroke-linejoin="round" opacity="1" fill="none"></path><path d="M1186.36 428.88C1192.05 428.88 1196.71 433.54 1196.71 439.23V461.22C1196.71 466.91 1192.05 471.57 1186.36 471.57 1180.67 471.57 1176.01 466.91 1176.01 461.22V439.23C1176.01 433.54 1180.67 428.88 1186.36 428.88Z" stroke="#ff9edd" stroke-width="4" stroke-linecap="round" stroke-linejoin="round" opacity="1" fill="none"></path><path d="M1258.28 428.88C1263.97 428.88 1268.63 433.54 1268.63 439.23V461.22C1268.63 466.91 1263.97 471.57 1258.28 471.57 1252.59 471.57 1247.93 466.91 1247.93 461.22V439.23C1247.99 433.54 1252.59 428.88 1258.28 428.88Z" stroke="#ff9edd" stroke-width="4" stroke-linecap="round" stroke-linejoin="round" opacity="1" fill="none"></path><path d="M1366.16 428.88C1371.85 428.88 1376.5 433.54 1376.5 439.23V461.22C1376.5 466.91 1371.85 471.57 1366.16 471.57 1360.46 471.57 1355.81 466.91 1355.81 461.22V439.23C1355.81 433.54 1360.46 428.88 1366.16 428.88Z" stroke="#ff9edd" stroke-width="4" stroke-linecap="round" stroke-linejoin="round" opacity="1" fill="none"></path><path d="M1212.04 428.88H1222.38V471.57" stroke="#ff9edd" stroke-width="4" stroke-linecap="round" stroke-linejoin="round" opacity="1" fill="none"></path><path d="M1212.04 471.57H1232.73" stroke="#ff9edd" stroke-width="4" stroke-linecap="round" stroke-linejoin="round" opacity="1" fill="none"></path><path d="M1283.89 428.88H1294.24V471.57" stroke="#ff9edd" stroke-width="4" stroke-linecap="round" stroke-linejoin="round" opacity="1" fill="none"></path><path d="M1283.89 471.57H1304.59" stroke="#ff9edd" stroke-width="4" stroke-linecap="round" stroke-linejoin="round" opacity="1" fill="none"></path><path d="M1319.85 428.88H1330.2V471.57" stroke="#ff9edd" stroke-width="4" stroke-linecap="round" stroke-linejoin="round" opacity="1" fill="none"></path><path d="M1319.85 471.57H1340.54" stroke="#ff9edd" stroke-width="4" stroke-linecap="round" stroke-linejoin="round" opacity="1" fill="none"></path><path d="M1332.4 573.11C1338.09 573.11 1342.74 577.76 1342.74 583.46V605.45C1342.74 611.14 1338.09 615.79 1332.4 615.79 1326.7 615.79 1322.05 611.14 1322.05 605.45V583.46C1322.05 577.76 1326.7 573.11 1332.4 573.11Z" stroke="#ff9edd" stroke-width="4" stroke-linecap="round" stroke-linejoin="round" opacity="1" fill="none"></path><path d="M1258.15 573.11C1263.84 573.11 1268.5 577.76 1268.5 583.46V605.45C1268.5 611.14 1263.84 615.79 1258.15 615.79 1252.46 615.79 1247.8 611.14 1247.8 605.45V583.46C1247.8 577.76 1252.46 573.11 1258.15 573.11Z" stroke="#ff9edd" stroke-width="4" stroke-linecap="round" stroke-linejoin="round" opacity="1" fill="none"></path><path d="M1295.27 573.11C1300.96 573.11 1305.62 577.76 1305.62 583.46V605.45C1305.62 611.14 1300.96 615.79 1295.27 615.79 1289.58 615.79 1284.92 611.14 1284.92 605.45V583.46C1284.92 577.76 1289.58 573.11 1295.27 573.11Z" stroke="#ff9edd" stroke-width="4" stroke-linecap="round" stroke-linejoin="round" opacity="1" fill="none"></path><path d="M1355.81 573.11H1366.16V615.79" stroke="#ff9edd" stroke-width="4" stroke-linecap="round" stroke-linejoin="round" opacity="1" fill="none"></path><path d="M1355.81 615.79H1376.5" stroke="#ff9edd" stroke-width="4" stroke-linecap="round" stroke-linejoin="round" opacity="1" fill="none"></path><path d="M1212.04 573.11H1222.38V615.79" stroke="#ff9edd" stroke-width="4" stroke-linecap="round" stroke-linejoin="round" opacity="1" fill="none"></path><path d="M1212.04 615.79H1232.73" stroke="#ff9edd" stroke-width="4" stroke-linecap="round" stroke-linejoin="round" opacity="1" fill="none"></path><path d="M1176.01 573.11H1186.36V615.79" stroke="#ff9edd" stroke-width="4" stroke-linecap="round" stroke-linejoin="round" opacity="1" fill="none"></path><path d="M1176.01 615.79H1196.71" stroke="#ff9edd" stroke-width="4" stroke-linecap="round" stroke-linejoin="round" opacity="1" fill="none"></path></g><g><path d="M547.45 614.61L498.7 587.68 526.5 536.77C527.04 535.79 526.82 534.71 525.95 534.05 525.09 533.4 523.89 533.4 523.13 534.16L480.79 572.38 450.07 523.31C449.53 522.44 448.33 522 447.36 522.44 446.38 522.87 445.84 523.85 446.05 524.93L458.65 580.41 410.99 578.67C410.01 578.67 409.03 579.32 408.82 580.3 408.6 581.28 409.03 582.36 410.01 582.8L455.28 603.53 435.09 654.56C434.65 655.53 435.09 656.62 435.96 657.16 436.83 657.7 438.02 657.6 438.67 656.73L472.98 618.95 496.86 661.83C497.29 662.48 497.94 662.92 498.7 662.92 498.92 662.92 499.14 662.92 499.36 662.81 500.33 662.48 500.98 661.5 500.88 660.53L494.69 610.92 545.82 618.73C546.91 618.84 547.88 618.3 548.21 617.32 548.75 616.23 548.32 615.15 547.45 614.61Z" fill="#ffc930" opacity="1" stroke-width="4" stroke="none"></path></g><g><path d="M1133.1 154.2L1152.48 198 1189.77 168.22C1190.66 167.57 1191.8 167.54 1192.65 168.27 1193.5 169 1193.66 170.22 1193.07 171.16L1167.05 213.34 1216.2 238.25C1217.11 238.73 1217.6 239.89 1217.36 240.86 1217.01 241.86 1216.02 242.54 1214.96 242.43L1161.93 236.44 1166.83 288.21C1166.97 289.33 1166.27 290.29 1165.18 290.54 1164.09 290.78 1163.04 290.21 1162.6 289.28L1140.99 239.09 1102.82 271.13C1101.94 271.79 1100.8 271.82 1099.95 271.09 1099.1 270.36 1098.94 269.13 1099.53 268.2L1126.59 223.48 1076.92 193.75C1076.39 193.41 1076.05 192.91 1075.9 192.26 1075.8 191.82 1075.81 191.36 1076.06 190.96 1076.52 189.93 1077.54 189.36 1078.64 189.69L1132.27 202.9 1129.09 155.22C1128.96 154.1 1129.77 153.12 1130.75 152.9 1131.51 152.72 1132.66 153.27 1133.1 154.2Z" fill="#efdcd7" opacity="1" stroke-width="4" stroke="none"></path></g><g><path d="M1202.52 788.58C1218.02 788.58 1230.58 776.02 1230.58 760.52 1230.58 745.02 1218.02 732.46 1202.52 732.46 1187.02 732.46 1174.46 745.02 1174.46 760.52 1174.46 776.02 1187.02 788.58 1202.52 788.58Z" fill="#ffffff" opacity="1" stroke-width="4" stroke="none"></path></g><g><path d="M236.18 640.77L249.61 665 246.97 637.93 274.9 642.44 251.48 627.33 272.29 612.88 246.16 616.53 245.85 592.53 234.2 612.96 211.2 600.5 224.64 621.16 202.89 628.3 224.91 634.32 215.28 657.86 236.18 640.77Z" fill="#ffffff" opacity="1" stroke-width="4" stroke="none"></path></g><g><path d="M597.21 760.71C616.65 760.71 632.4 744.96 632.4 725.52 632.4 706.08 616.65 690.33 597.21 690.33 577.78 690.33 562.03 706.08 562.03 725.52 562.03 744.96 577.78 760.71 597.21 760.71Z" fill="#ffffff" opacity="1" stroke-width="4" stroke="none"></path></g><g><path d="M277.04 297.36V339.72" stroke="#ff9edd" stroke-width="4" stroke-linecap="round" stroke-linejoin="round" opacity="1" fill="none"></path><path d="M298.22 318.54H255.85" stroke="#ff9edd" stroke-width="4" stroke-linecap="round" stroke-linejoin="round" opacity="1" fill="none"></path></g><g><path d="M1330.43 806.9V842.09" stroke="#61ccff" stroke-width="4" stroke-linecap="round" stroke-linejoin="round" opacity="1" fill="none"></path><path d="M1348.02 824.5H1312.84" stroke="#61ccff" stroke-width="4" stroke-linecap="round" stroke-linejoin="round" opacity="1" fill="none"></path></g><g><path d="M298.95 818.6V869.11" stroke="#61ccff" stroke-width="4" stroke-linecap="round" stroke-linejoin="round" opacity="1" fill="none"></path><path d="M324.21 843.85H273.69" stroke="#61ccff" stroke-width="4" stroke-linecap="round" stroke-linejoin="round" opacity="1" fill="none"></path></g><g><path d="M1333.09 241.55V281.37" stroke="#ff9edd" stroke-width="4" stroke-linecap="round" stroke-linejoin="round" opacity="1" fill="none"></path><path d="M1353 261.46H1313.18" stroke="#ff9edd" stroke-width="4" stroke-linecap="round" stroke-linejoin="round" opacity="1" fill="none"></path></g><g><path d="M596.35 157.28V197.59" stroke="#efdcd7" stroke-width="4" stroke-linecap="round" stroke-linejoin="round" opacity="1" fill="none"></path><path d="M616.5 177.43H576.2" stroke="#efdcd7" stroke-width="4" stroke-linecap="round" stroke-linejoin="round" opacity="1" fill="none"></path></g><g><path d="M1034.24 899.49L998 975.86 1080.44 932.7 1142.74 1020.87 1135.68 917.18 1226.16 926.84 1155.91 858.7 1219.85 841.59" stroke="#231f20" stroke-width="4" stroke-linecap="round" stroke-linejoin="round" opacity="1" fill="none"></path></g><g><path d="M246.96 730.58L279.66 779.68 343.33 646.43 406.58 766.99 432.19 711.85 477.15 767.4" stroke="#231f20" stroke-width="4" stroke-linecap="round" stroke-linejoin="round" opacity="1" fill="none"></path></g><g><path d="M741.1 421.69V439.32" stroke="#ffffff" stroke-width="4" stroke-linecap="round" stroke-linejoin="round" opacity="1" fill="none"></path><path d="M741.1 489.37V507" stroke="#ffffff" stroke-width="4" stroke-linecap="round" stroke-linejoin="round" opacity="1" fill="none"></path><path d="M783.76 464.34H766.13" stroke="#ffffff" stroke-width="4" stroke-linecap="round" stroke-linejoin="round" opacity="1" fill="none"></path><path d="M716.08 464.34H698.45" stroke="#ffffff" stroke-width="4" stroke-linecap="round" stroke-linejoin="round" opacity="1" fill="none"></path><path d="M710.96 434.2L723.38 446.62" stroke="#ffffff" stroke-width="4" stroke-linecap="round" stroke-linejoin="round" opacity="1" fill="none"></path><path d="M758.83 482.07L771.25 494.49" stroke="#ffffff" stroke-width="4" stroke-linecap="round" stroke-linejoin="round" opacity="1" fill="none"></path><path d="M771.25 434.2L758.83 446.62" stroke="#ffffff" stroke-width="4" stroke-linecap="round" stroke-linejoin="round" opacity="1" fill="none"></path><path d="M723.38 482.07L710.96 494.49" stroke="#ffffff" stroke-width="4" stroke-linecap="round" stroke-linejoin="round" opacity="1" fill="none"></path></g><g><path d="M919.39 262.16L919.64 180.18 875.79 262.16 805.82 161.89 821.72 310.2 715.39 264.63 773.85 335.38" stroke="#231f20" stroke-width="4" stroke-linecap="round" stroke-linejoin="round" opacity="1" fill="none"></path></g><g><path d="M515.74 811.75C516.73 831.53 510.29 867.02 473.71 876.59 437.44 885.96 420.01 878.82 388.39 902.37 360.86 922.71 359.25 968.67 359.25 968.67L444.27 996.35C444.27 996.35 447.42 964 467.6 949.66 503.42 924.29 543.01 943.61 576.99 907.9 602.79 880.75 601.04 841.15 601.04 841.15L515.74 811.75Z" fill="#ff9edd" opacity="1" stroke-width="4" stroke="none"></path></g><g><path d="M347.43 467.6L209.69 416.69C209.52 416.69 209.34 416.69 209.52 416.86L256.59 555.99C256.59 556.17 256.76 556.17 256.94 555.99L274.55 515.72C274.55 515.54 274.72 515.54 274.9 515.72L306.8 548.15H306.98L338.53 517.46V517.29L306.8 484.68C306.8 484.51 306.8 484.51 306.8 484.33L347.25 467.95C347.43 467.95 347.43 467.6 347.43 467.6Z" fill="#efdcd7" opacity="1" stroke-width="4" stroke="none"></path></g><g><path d="M1431.17 550.51L1464.91 558.6 1436.24 578.1 1446.28 611.36 1414.88 596.15 1391.08 621.41 1388.55 586.78 1354.8 578.79 1383.57 559.28 1373.63 526.12 1404.83 541.14 1428.73 515.88 1431.17 550.51Z" fill="#ffc930" opacity="1" stroke-width="4" stroke="none"></path></g><g><path d="M1219.5 365.78C1217.03 353.02 1217.27 339.88 1220.18 327.22 1223.09 314.55 1228.63 302.63 1236.42 292.23 1240.55 306.7 1236.07 319.39 1244.92 328.26 1243.27 302.72 1255.74 300.19 1257.94 270.25 1286.99 297.38 1271.03 322.97 1288.47 345.41 1288.47 345.41 1294.34 333.65 1287.06 309.15 1299.98 314.79 1312.3 328.9 1315.84 346.36 1318.4 359.13 1315.79 372.4 1308.58 383.24 1301.36 394.09 1290.14 401.62 1277.37 404.2 1264.6 406.77 1251.33 404.17 1240.48 396.97 1229.63 389.76 1222.08 378.55 1219.5 365.78Z" fill="#61ccff" opacity="1" stroke-width="4" stroke="none"></path></g><g><path d="M1034.46 237.27C1067.4 237.27 1094.11 210.56 1094.11 177.62 1094.11 144.68 1067.4 117.98 1034.46 117.98 1001.52 117.98 974.82 144.68 974.82 177.62 974.82 210.56 1001.52 237.27 1034.46 237.27Z" fill="#ffc930" opacity="1" stroke-width="4" stroke="none"></path><path d="M1025.33 180.9L1023.82 165.09C1023.63 163.39 1022.49 162 1020.86 161.56 1017.52 160.62 1013.99 160.87 1010.78 162.26 1002.78 165.72 999.25 175.36 1002.97 183.8 1009.96 199.92 1031.75 202.69 1040.26 203.2 1040.57 203.2 1040.82 203.01 1040.82 202.69V202.63L1039.31 187.01C1039.12 185.31 1037.74 184.05 1036.1 184.05L1028.6 183.92C1026.9 183.86 1025.52 182.6 1025.33 180.9Z" fill="#ffffff" opacity="1" stroke-width="4" stroke="none"></path><path d="M1063.37 163.58C1061.23 154.64 1052.6 149.03 1044.1 151.11 1041.96 151.61 1039.94 152.62 1038.24 154.01 1035.78 156.02 1034.21 158.98 1034.02 162.19L1033.01 174.66C1032.89 176.36 1034.02 177.81 1035.66 178.13L1043.03 179.51C1044.66 179.83 1045.8 181.34 1045.67 182.98L1044.29 200.74C1044.29 201.05 1044.48 201.31 1044.79 201.31 1044.92 201.31 1045.1 201.24 1045.17 201.18 1052.1 195.32 1067.34 180.14 1063.37 163.58Z" fill="#ffffff" opacity="1" stroke-width="4" stroke="none"></path></g><g><path d="M604.58 1050.06C604.58 1050.06 618.66 1032.27 629.88 1015.52 637.69 1003.92 644.25 989.17 645.39 971.85 645.96 964.05 646.25 954.92 646.44 946.83 646.44 946.36 655.86 942.36 655.86 941.89L751.47 946.74C747.85 995.64 736.06 1035.5 727.87 1058.14L595.54 1066.32C597.92 1062.33 604.58 1050.06 604.58 1050.06Z" fill="#f1c5bc" opacity="1" stroke-width="4" stroke="none"></path><path d="M662.23 1058.14L589.17 1058.52C589.07 1058.52 588.98 1058.24 589.07 1058.14 591.45 1054.24 594.97 1050.06 599.82 1046.44 604.77 1042.73 618.75 1032.17 629.88 1015.62 629.88 1015.62 629.98 1015.52 629.98 1015.62 647.29 1022.85 659.95 1038.83 662.23 1058.14 662.23 1058.14 662.33 1058.05 662.23 1058.14Z" fill="#ffc930" opacity="1" stroke-width="4" stroke="none"></path><path d="M684.87 749.9C719.69 727.07 855.83 696.82 855.83 696.82H961.53L970.09 749.24C977.7 796.04 941.45 838.38 893.89 838.38L762.22 838.47C770.59 877 753.75 914.01 751.37 946.74L646.44 946.83C648.15 867.97 637.11 781.2 684.87 749.9Z" fill="#61ccff" opacity="1" stroke-width="4" stroke="none"></path><path d="M681.64 990.12C681.64 936.84 656.43 873.86 662.33 832.57L704.76 858.26C732.44 920.58 711.42 1021.23 702.28 1058.14H651.67C663.09 1046.73 681.64 1013.43 681.64 990.12Z" fill="#51a4cb" opacity="0.2" stroke-width="4" stroke="none"></path><path d="M589.07 1058.14H624.46 702.28 727.78C727.87 1058.14 727.87 1058.24 727.87 1058.24 723.5 1070.61 720.07 1077.74 719.79 1078.41 719.79 1078.41 719.79 1078.5 719.69 1078.5L584.12 1078.5C584.03 1078.5 584.03 1078.5 584.03 1078.41 583.84 1077.46 582.98 1068.23 589.07 1058.14Z" fill="#12100c" opacity="1" stroke-width="4" stroke="none"></path><path d="M669.08 1043.59C678.88 1036.17 683.35 1027.6 688.39 1020.94 697.43 1008.96 699.52 997.45 697.62 984.89 696.86 980.04 694.29 970.81 690.87 959.49 689.63 955.49 688.2 951.11 686.87 946.64L737.67 943.22 785.81 946.55C786.29 951.69 786.76 956.92 787.14 962.06 787.14 962.06 788.1 997.54 786.29 1016.28 784.96 1029.98 779.53 1040.26 776.2 1054.43L739.77 1058.14 711.89 1068.89 658.52 1068.32C659 1060.81 657.09 1055.1 669.08 1043.59Z" fill="#f1c5bc" opacity="1" stroke-width="4" stroke="none"></path><path d="M665.27 881C661.09 867.39 655.48 847.23 653.48 839.33 646.25 809.46 633.12 754.18 700.67 728.21 766.59 704.24 845.08 696.53 845.08 696.53L909.96 692.06 970 696.53C984.55 740.1 1013.28 838.38 920.14 838.38 911.11 838.38 902.35 838.38 893.89 838.38 815.11 838.38 762.22 838.47 762.22 838.47 762.22 838.47 765.45 846.94 769.54 861.59 771.16 867.2 772.87 873.67 774.68 881 780.01 902.6 783.72 924.48 785.81 946.55L686.87 946.64C680.21 926.28 671.84 901.64 665.27 881Z" fill="#61ccff" opacity="1" stroke-width="4" stroke="none"></path><path d="M651.67 1058.24C651.57 1058.24 651.48 1058.14 651.57 1058.05 655.48 1051.77 660.71 1046.06 666.61 1041.68 676.31 1034.36 683.35 1027.51 688.3 1021.04H688.39C700.95 1029.13 709.61 1043.02 711.8 1058.52 711.8 1058.71 711.7 1058.9 711.51 1058.9L679.83 1062.71 651.67 1058.24Z" fill="#ffc930" opacity="1" stroke-width="4" stroke="none"></path><path d="M779.34 1058.14H739.86C739.77 1058.14 739.77 1058.05 739.77 1058.05 744.14 1035.69 763.07 1018.47 786.19 1016.28 786.29 1016.28 786.29 1016.28 786.29 1016.38 784.96 1030.08 782.77 1043.97 779.34 1058.14 779.44 1058.14 779.44 1058.14 779.34 1058.14Z" fill="#ffc930" opacity="1" stroke-width="4" stroke="none"></path><path d="M769.35 861.5L729.97 838.66C729.87 838.57 729.87 838.47 730.06 838.47H762.22C762.22 838.47 762.31 838.47 762.31 838.57 762.69 839.52 765.45 847.13 769.64 861.4 769.54 861.4 769.45 861.5 769.35 861.5Z" fill="#51a4cb" opacity="0.2" stroke-width="4" stroke="none"></path><path d="M645.2 1076.6C645.39 1073.84 646.25 1066.99 651.48 1058.05 655.38 1051.67 660.61 1046.06 666.61 1041.59 694.2 1020.75 700.57 1004.3 697.62 984.79 696.86 979.94 694.29 970.71 690.87 959.39 689.63 955.4 688.2 951.02 686.87 946.55 680.31 926.09 672.03 901.55 665.46 881 661.28 867.39 655.67 847.23 653.67 839.33 652.34 834.1 650.91 828.01 649.86 821.54" stroke="#51a4cb" stroke-width="4" stroke-linecap="round" stroke-linejoin="round" opacity="1" fill="none"></path><path d="M729.97 838.66L762.22 838.47" stroke="#51a4cb" stroke-width="4" stroke-linecap="round" stroke-linejoin="round" opacity="1" fill="none"></path><path d="M944.12 413.21C946.4 429.29 948.59 505.78 948.59 505.78L885.32 504.26 881.52 494.84V489.61C874.19 493.13 854.69 495.79 845.84 486.18 837.09 476.77 837.85 466.02 839.47 455.46 839.56 455.07 839.37 454.6 838.99 454.41 837 453.17 830.62 448.89 830.72 445.09 830.81 441.66 837.57 438.81 839.28 438.14 839.47 438.05 839.66 437.86 839.66 437.57 839.56 428.91 839.66 420.06 840.52 412.45 841.09 406.94 842.13 402.08 843.85 398.28 851.46 382.11 866.87 374.97 892.65 372.31 922.24 369.07 942.5 399.13 944.12 413.21Z" fill="#f1c5bc" opacity="1" stroke-width="4" stroke="none"></path><path d="M627.41 558.49C622.27 552.4 628.55 548.88 629.12 548.5V548.4C624.94 538.03 635.59 538.41 636.45 538.51 636.45 538.51 636.54 538.51 636.54 538.41 638.35 528.9 669.46 540.32 671.74 541.17 671.84 541.17 671.84 541.17 671.84 541.08 671.65 539.84 670.41 531.28 674.6 531.28 679.16 531.28 690.87 539.46 709.04 554.87 717.31 562.01 746.71 589.5 747.76 590.45 747.76 590.45 747.76 590.45 747.76 590.55L747.66 596.16 706.75 632.31 702.28 632.79C702.28 632.79 702.19 632.79 702.19 632.69L696.76 620.8C696.57 620.42 696.29 620.23 695.91 620.14 674.22 616.71 668.22 595.97 653.95 590.74 639.4 585.32 627.6 580.84 627.6 575.33 627.6 570.86 644.44 572.66 650.91 573.52 651.29 573.61 651.48 573.04 651.1 572.85 645.77 570.38 631.69 563.53 627.41 558.49Z" fill="#f1c5bc" opacity="1" stroke-width="4" stroke="none"></path><path d="M908.35 442.04L901.97 446.7" stroke="#bf796b" stroke-width="4" stroke-linecap="round" stroke-linejoin="round" opacity="1" fill="none"></path><path d="M861.16 453.55C859.92 455.93 857.45 457.36 854.79 457.17" stroke="#bf796b" stroke-width="4" stroke-linecap="round" stroke-linejoin="round" opacity="1" fill="none"></path><path d="M881.52 489.61C885.04 487.42 888.75 485.04 891.89 482.85" stroke="#bf796b" stroke-width="4" stroke-linecap="round" stroke-linejoin="round" opacity="1" fill="none"></path><path d="M881.52 504.26V489.61C884.28 488.37 887.7 485.71 891.89 482.85 892.27 482.57 892.75 483.04 892.55 483.43L881.52 504.26Z" fill="#bf796b" opacity="0.25" stroke-width="4" stroke="none"></path><path d="M681.35 545.36L671.93 541.27" stroke="#bf796b" stroke-width="4" stroke-linecap="round" stroke-linejoin="round" opacity="1" fill="none"></path><path d="M636.54 538.51C656.52 543.93 670.51 548.97 670.51 548.97" stroke="#bf796b" stroke-width="4" stroke-linecap="round" stroke-linejoin="round" opacity="1" fill="none"></path><path d="M629.22 548.5C644.63 552.11 662.42 558.87 662.42 558.87" stroke="#bf796b" stroke-width="4" stroke-linecap="round" stroke-linejoin="round" opacity="1" fill="none"></path><path d="M856.5 437.19C854.93 437.19 853.64 435.91 853.64 434.34 853.64 432.77 854.93 431.48 856.5 431.48 858.08 431.48 859.35 432.77 859.35 434.34 859.35 435.91 858.08 437.19 856.5 437.19Z" fill="#0b0c0c" opacity="1" stroke-width="4" stroke="none"></path><path d="M777.92 619.18C779.34 616.05 807.12 551.73 822.72 531.18 840.42 507.97 877.52 506.73 881.14 506.64 881.33 506.64 881.42 506.54 881.42 506.35V494.84H949.26L948.78 510.73C948.78 510.73 993.3 536.8 982.84 607.2 973.14 672.84 969.9 696.53 969.9 696.53H844.99L841.37 662.19C841.37 662.09 841.18 662.09 841.18 662.19 839.09 666.56 814.92 715.37 776.58 713.18 748.33 711.47 731.68 685.02 717.03 659.24L740.62 626.89 769.07 610.91C774.21 615.57 777.34 618.61 777.92 619.18Z" fill="#ffc930" opacity="1" stroke-width="4" stroke="none"></path><path d="M845.08 696.53L841.47 661.81 866.39 615.09C866.68 614.52 867.53 614.71 867.53 615.38L870.01 696.63 845.08 696.53Z" fill="#090805" opacity="0.25" stroke-width="4" stroke="none"></path><path d="M747.76 590.55C752.42 594.83 756.8 599.11 760.7 602.92 763.93 605.96 766.5 608.53 769.07 610.91L717.03 659.24C710.65 649.25 705.9 640.11 702.28 632.98V632.88L747.76 590.55Z" fill="#61ccff" opacity="1" stroke-width="4" stroke="none"></path><path d="M777.92 619.18L773.25 629.93" stroke="#090805" stroke-width="4" stroke-linecap="round" stroke-linejoin="round" opacity="1" fill="none"></path><path d="M841.47 661.81C853.26 640.88 866.39 615.09 866.39 615.09" stroke="#090805" stroke-width="4" stroke-linecap="round" stroke-linejoin="round" opacity="1" fill="none"></path><path d="M872.29 507.4C874.38 506.92 881.23 506.64 881.23 506.64" stroke="#090805" stroke-width="4" stroke-linecap="round" stroke-linejoin="round" opacity="1" fill="none"></path><path d="M761.17 603.2C766.5 608.24 777.25 618.52 778.01 619.28V619.37L773.25 629.93C773.25 630.03 773.16 630.03 773.06 629.93L760.98 603.3C760.98 603.2 761.08 603.11 761.17 603.2Z" fill="#090805" opacity="0.25" stroke-width="4" stroke="none"></path><path d="M843.85 397.71C851.46 381.53 866.96 371.64 892.75 368.88 922.33 365.74 945.93 384.29 949.45 413.21 950.4 419.68 950.59 435.76 950.4 452.7 950.4 453.17 950.78 453.65 951.35 453.55 959.34 452.98 1015.66 451.17 1017.18 509.49 1017.18 509.97 1017.56 510.44 1018.04 510.54 1023.75 511.4 1055.81 517.67 1067.8 552.78 1069.32 557.35 1070.46 561.82 1071.13 566.1 1073.79 582.27 1070.93 596.92 1064.75 608.81 1055.24 627.18 1037.83 639.16 1020.7 640.78 1020.61 640.78 1020.61 640.78 1020.51 640.78 957.44 646.49 953.44 579.99 953.35 577.71 953.35 577.71 953.35 577.61 953.25 577.61 923.19 569.71 909.2 553.16 903.59 535.27 895.41 509.11 905.02 480.19 908.54 470.96 909.2 469.15 910.25 467.54 911.58 466.21 916.81 460.69 931.18 443.75 921.48 429.77 909.49 412.64 886.85 433.48 885.99 434.34 885.99 434.34 885.99 434.34 885.9 434.34 885.42 434.14 881.23 432.43 879.71 419.21 879.71 419.11 879.62 419.11 879.52 419.11 863.63 427.01 863.82 412.07 863.82 410.46 863.82 410.36 863.73 410.36 863.73 410.36 851.46 417.97 841.18 412.74 840.52 412.36 840.52 412.36 840.52 412.36 840.52 412.26 840.8 406.75 842.04 401.51 843.85 397.71Z" fill="#7e1b30" opacity="1" stroke-width="4" stroke="none"></path><path d="M971.71 552.78C973.04 554.78 1008.91 611 1061.33 575.14 1064.75 572.66 1068.27 569.62 1071.03 566.19 1071.13 566.1 1071.22 566.19 1071.22 566.19 1073.79 582.37 1071.03 596.83 1064.75 608.72 1055.14 626.99 1037.64 639.07 1020.51 640.69 995.87 642.97 980.27 634.22 970.38 622.51 954.87 604.25 953.35 578.94 953.35 577.61 953.35 577.61 953.35 577.51 953.25 577.51 923.66 569.71 909.49 553.64 903.78 535.56 903.78 535.46 903.88 535.37 903.97 535.46 917.58 550.97 938.6 561.25 971.71 552.78Z" fill="#0d0d0d" opacity="0.25" stroke-width="4" stroke="none"></path><path d="M950.49 440.9V452.98" stroke="#0d0d0d" stroke-width="4" stroke-linecap="round" stroke-linejoin="round" opacity="1" fill="none"></path><path d="M938.51 572.47C944.78 575.04 948.97 576.37 953.35 577.71" stroke="#090805" stroke-width="4" stroke-linecap="round" stroke-linejoin="round" opacity="1" fill="none"></path><path d="M941.36 738.01H893.6C892.75 738.01 891.98 738.77 892.17 739.72 893.51 747.52 900.36 779.96 924.71 779.96 949.64 779.96 944.12 745.91 942.79 739.15 942.6 738.49 942.03 738.01 941.36 738.01Z" fill="#409fcd" opacity="1" stroke-width="4" stroke="none"></path><path d="M970.09 696.72H845.18" stroke="#090805" stroke-width="4" stroke-linecap="round" stroke-linejoin="round" opacity="1" fill="none"></path><path d="M950.02 388.76C928.27 388.76 910.63 371.13 910.63 349.38 910.63 327.63 928.27 309.99 950.02 309.99 971.77 309.99 989.4 327.63 989.4 349.38 989.4 371.13 971.77 388.76 950.02 388.76Z" fill="#7e1b30" opacity="1" stroke-width="4" stroke="none"></path><path d="M779.44 1058.24C777.82 1064.9 776.01 1071.75 774.02 1078.41L773.92 1078.5H645.39C645.3 1078.5 645.3 1078.5 645.3 1078.41 645.3 1077.46 645.39 1068.7 651.57 1058.14L651.67 1058.05H779.34C779.34 1058.14 779.44 1058.24 779.44 1058.24Z" fill="#12100c" opacity="1" stroke-width="4" stroke="none"></path><path d="M917.96 372.21C922.9 379.16 930.04 384.39 938.32 386.96" stroke="#0d0d0d" stroke-width="4" stroke-linecap="round" stroke-linejoin="round" opacity="1" fill="none"></path></g><g><path d="M821.5 984.11V963.83H968.2V984.11H821.5Z" fill="#ff9edd" opacity="1" stroke-width="4" stroke="none"></path><path d="M821.5 984.11V963.83H844.31L834.68 984.11H821.5Z" fill="#b73188" opacity="0.2" stroke-width="4" stroke="none"></path><path d="M955.02 984.11L945.39 963.83H968.2V984.11H955.02Z" fill="#b73188" opacity="0.2" stroke-width="4" stroke="none"></path><path d="M792.7 1068.77C792.6 1069.18 792.6 1069.68 792.6 1070.09 792.6 1074.45 796.15 1078 800.51 1078 804.16 1078 807.51 1075.36 808.22 1071.81L857.39 845.21H830.22L792.7 1068.77Z" fill="#ff9edd" opacity="1" stroke-width="4" stroke="none"></path><path d="M959.38 845.21H932.21L981.48 1071.81C982.3 1075.46 985.54 1078 989.19 1078 989.6 1078 990 1078 990.41 1077.89 992.54 1077.59 994.36 1076.47 995.58 1074.75 996.79 1073.03 997.3 1070.9 997 1068.87L959.38 845.21Z" fill="#ff9edd" opacity="1" stroke-width="4" stroke="none"></path><path d="M831.74 963.83L827.38 984.11" stroke="#d0379a" stroke-width="4" stroke-linecap="round" stroke-linejoin="round" opacity="1" fill="none"></path><path d="M957.76 963.83L962.12 984.11" stroke="#d0379a" stroke-width="4" stroke-linecap="round" stroke-linejoin="round" opacity="1" fill="none"></path><path d="M830.32 845.21L822.82 889.62H847.86L857.49 845.21H830.32Z" fill="#b73188" opacity="0.2" stroke-width="4" stroke="none"></path><path d="M959.38 845.21H932.21L941.84 889.62H966.88L959.38 845.21Z" fill="#b73188" opacity="0.2" stroke-width="4" stroke="none"></path><path d="M810.45 860.52H979.36C985.95 860.52 991.22 855.25 991.22 848.66 991.22 842.07 985.95 836.8 979.36 836.8H810.45C803.86 836.8 798.58 842.07 798.58 848.66 798.58 855.25 803.86 860.52 810.45 860.52Z" fill="#ff9edd" opacity="1" stroke-width="4" stroke="none"></path><path d="M827.68 860.52H854.14" stroke="#ff9edd" stroke-width="4" stroke-linecap="round" stroke-linejoin="round" opacity="1" fill="none"></path><path d="M935.56 860.52H962.02" stroke="#ff9edd" stroke-width="4" stroke-linecap="round" stroke-linejoin="round" opacity="1" fill="none"></path></g></svg>